<?xml version="1.0" encoding="UTF-8" standalone="no"?><!-- Generator: Gravit.io --><svg xmlns="http://www.w3.org/2000/svg" xmlns:xlink="http://www.w3.org/1999/xlink" style="isolation:isolate" viewBox="0 0 128 128" width="128pt" height="128pt"><linearGradient id="_lgradient_0" x1="0.5" y1="-2.220446049250313e-16" x2="0.5000000000000001" y2="1.0000000000000002" gradientTransform="matrix(115.482,0,0,128,6.259,0)" gradientUnits="userSpaceOnUse"><stop offset="0%" stop-opacity="1" style="stop-color:rgb(250,88,182)"/><stop offset="100%" stop-opacity="1" style="stop-color:rgb(122,11,192)"/></linearGradient><path d=" M 49.497 25.12 L 10.621 92.456 L 10.621 92.456 Q 4.812 102.517 6.739 111.425 L 6.739 111.425 L 6.739 111.425 Q 8.666 120.333 16.552 124.886 L 16.552 124.886 L 16.552 124.886 Q 20.903 127.398 25.73 127.828 L 25.73 127.828 L 25.73 127.828 Q 30.558 128.259 33.832 127.611 L 33.832 127.611 L 33.832 127.611 Q 28.394 124.471 27.872 119.094 L 27.872 119.094 L 27.872 119.094 Q 27.351 113.717 30.805 107.735 L 30.805 107.735 L 64 64 L 97.195 107.735 L 97.195 107.735 Q 100.649 113.717 100.128 119.094 L 100.128 119.094 L 100.128 119.094 Q 99.606 124.471 94.168 127.611 L 94.168 127.611 L 94.168 127.611 Q 97.442 128.259 102.27 127.828 L 102.27 127.828 L 102.27 127.828 Q 107.097 127.398 111.448 124.886 L 111.448 124.886 L 111.448 124.886 Q 119.334 120.333 121.261 111.425 L 121.261 111.425 L 121.261 111.425 Q 123.188 102.517 117.379 92.456 L 117.379 92.456 L 78.503 25.12 L 85.754 12.56 L 64 0 L 42.246 12.56 L 49.497 25.12 Z " fill="url(#_lgradient_0)"/></svg>