<?xml version="1.0" encoding="UTF-8" standalone="no"?><!-- Generator: Gravit.io --><svg xmlns="http://www.w3.org/2000/svg" xmlns:xlink="http://www.w3.org/1999/xlink" style="isolation:isolate" viewBox="0 0 1280 640" width="1280pt" height="640pt"><path d=" M 637.489 479.773 L 634.024 479.773 L 529.736 394.195 L 509.987 415.676 L 507.908 475.269 L 465.292 475.269 L 456.284 205.021 L 516.917 205.021 L 511.373 374.446 L 567.155 277.78 L 627.441 288.174 L 563.69 357.469 L 637.489 479.773 Z  M 716.138 475.269 L 673.522 475.269 L 661.049 282.284 L 722.028 282.284 L 720.989 316.585 L 720.989 316.585 Q 728.958 306.191 740.391 297.356 L 740.391 297.356 L 740.391 297.356 Q 751.825 288.521 765.164 283.15 L 765.164 283.15 L 765.164 283.15 Q 778.503 277.78 792.015 277.78 L 792.015 277.78 L 792.015 328.711 L 792.015 328.711 Q 785.086 324.9 776.597 322.995 L 776.597 322.995 L 776.597 322.995 Q 768.109 321.089 759.101 321.089 L 759.101 321.089 L 759.101 321.089 Q 748.36 321.089 737.966 323.687 L 737.966 323.687 L 737.966 323.687 Q 727.572 326.286 720.642 331.137 L 720.642 331.137 L 716.138 475.269 Z  M 839.829 271.543 L 812.111 200.17 L 896.304 214.722 L 839.829 271.543 Z  M 869.972 475.269 L 827.009 475.269 L 818.001 282.284 L 878.98 282.284 L 869.972 475.269 Z  M 1038.011 435.425 L 1039.743 438.889 L 1039.743 438.889 Q 1022.073 460.024 1007.001 469.899 L 1007.001 469.899 L 1007.001 469.899 Q 991.93 479.773 979.803 479.773 L 979.803 479.773 L 979.803 479.773 Q 964.559 479.773 955.55 463.662 L 955.55 463.662 L 955.55 463.662 Q 946.542 447.551 945.503 417.062 L 945.503 417.062 L 942.384 322.128 L 905.312 322.128 L 905.312 318.317 L 992.623 221.998 L 997.127 221.998 L 994.009 288.521 L 1033.16 275.355 L 1033.16 322.128 L 992.276 322.128 L 988.119 409.439 L 988.119 409.439 Q 988.119 411.865 987.945 414.117 L 987.945 414.117 L 987.945 414.117 Q 987.772 416.369 987.772 418.794 L 987.772 418.794 L 987.772 418.794 Q 987.772 433.346 991.237 440.102 L 991.237 440.102 L 991.237 440.102 Q 994.702 446.858 1003.363 446.858 L 1003.363 446.858 L 1003.363 446.858 Q 1014.797 446.858 1038.011 435.425 L 1038.011 435.425 Z  M 1095.525 271.543 L 1067.807 200.17 L 1152 214.722 L 1095.525 271.543 Z  M 1125.668 475.269 L 1082.706 475.269 L 1073.697 282.284 L 1134.676 282.284 L 1125.668 475.269 Z " fill="rgb(26,26,64)"/><linearGradient id="_lgradient_3" x1="0.5" y1="-2.220446049250313e-16" x2="0.5000000000000001" y2="1.0000000000000002" gradientTransform="matrix(288.296,0,0,319.546,128,160.227)" gradientUnits="userSpaceOnUse"><stop offset="0%" stop-opacity="1" style="stop-color:rgb(250,88,182)"/><stop offset="100%" stop-opacity="1" style="stop-color:rgb(122,11,192)"/></linearGradient><path d=" M 235.942 222.937 L 138.889 391.038 L 138.889 391.038 Q 124.387 416.156 129.198 438.394 L 129.198 438.394 L 129.198 438.394 Q 134.01 460.632 153.696 471.998 L 153.696 471.998 L 153.696 471.998 Q 164.558 478.269 176.61 479.344 L 176.61 479.344 L 176.61 479.344 Q 188.661 480.419 196.836 478.802 L 196.836 478.802 L 196.836 478.802 Q 183.259 470.963 181.957 457.54 L 181.957 457.54 L 181.957 457.54 Q 180.656 444.117 189.278 429.182 L 189.278 429.182 L 272.148 320 L 355.018 429.182 L 355.018 429.182 Q 363.641 444.117 362.339 457.54 L 362.339 457.54 L 362.339 457.54 Q 361.038 470.963 347.461 478.802 L 347.461 478.802 L 347.461 478.802 Q 355.635 480.419 367.687 479.344 L 367.687 479.344 L 367.687 479.344 Q 379.738 478.269 390.6 471.998 L 390.6 471.998 L 390.6 471.998 Q 410.287 460.632 415.098 438.394 L 415.098 438.394 L 415.098 438.394 Q 419.909 416.156 405.407 391.038 L 405.407 391.038 L 308.354 222.937 L 326.457 191.582 L 272.148 160.227 L 217.84 191.582 L 235.942 222.937 Z " fill="url(#_lgradient_3)"/></svg>