<?xml version="1.0" encoding="UTF-8" standalone="no"?><!-- Generator: Gravit.io --><svg xmlns="http://www.w3.org/2000/svg" xmlns:xlink="http://www.w3.org/1999/xlink" style="isolation:isolate" viewBox="0 0 205.1 64" width="205.1pt" height="64pt"><path d=" M 102.042 64 L 101.349 64 L 80.461 46.86 L 76.506 51.162 L 76.09 63.098 L 67.554 63.098 L 65.75 8.972 L 77.894 8.972 L 76.783 42.905 L 87.956 23.544 L 100.03 25.626 L 87.262 39.504 L 102.042 64 Z  M 117.795 63.098 L 109.259 63.098 L 106.761 24.446 L 118.974 24.446 L 118.766 31.316 L 118.766 31.316 Q 120.362 29.234 122.652 27.465 L 122.652 27.465 L 122.652 27.465 Q 124.942 25.695 127.614 24.62 L 127.614 24.62 L 127.614 24.62 Q 130.285 23.544 132.992 23.544 L 132.992 23.544 L 132.992 33.745 L 132.992 33.745 Q 131.604 32.981 129.904 32.6 L 129.904 32.6 L 129.904 32.6 Q 128.204 32.218 126.399 32.218 L 126.399 32.218 L 126.399 32.218 Q 124.248 32.218 122.166 32.739 L 122.166 32.739 L 122.166 32.739 Q 120.085 33.259 118.697 34.23 L 118.697 34.23 L 117.795 63.098 Z  M 142.568 22.295 L 137.016 8 L 153.879 10.914 L 142.568 22.295 Z  M 148.605 63.098 L 140 63.098 L 138.196 24.446 L 150.409 24.446 L 148.605 63.098 Z  M 182.261 55.118 L 182.608 55.812 L 182.608 55.812 Q 179.068 60.045 176.05 62.022 L 176.05 62.022 L 176.05 62.022 Q 173.031 64 170.603 64 L 170.603 64 L 170.603 64 Q 167.549 64 165.745 60.773 L 165.745 60.773 L 165.745 60.773 Q 163.941 57.546 163.733 51.44 L 163.733 51.44 L 163.108 32.426 L 155.683 32.426 L 155.683 31.663 L 173.17 12.372 L 174.072 12.372 L 173.448 25.695 L 181.289 23.058 L 181.289 32.426 L 173.101 32.426 L 172.268 49.913 L 172.268 49.913 Q 172.268 50.399 172.233 50.85 L 172.233 50.85 L 172.233 50.85 Q 172.199 51.301 172.199 51.787 L 172.199 51.787 L 172.199 51.787 Q 172.199 54.701 172.893 56.055 L 172.893 56.055 L 172.893 56.055 Q 173.586 57.408 175.321 57.408 L 175.321 57.408 L 175.321 57.408 Q 177.611 57.408 182.261 55.118 L 182.261 55.118 Z  M 193.78 22.295 L 188.228 8 L 205.091 10.914 L 193.78 22.295 Z  M 199.817 63.098 L 191.212 63.098 L 189.408 24.446 L 201.621 24.446 L 199.817 63.098 Z " fill="rgb(255,255,255)"/><linearGradient id="_lgradient_2" x1="0.5" y1="-2.220446049250313e-16" x2="0.5000000000000001" y2="1.0000000000000002" gradientTransform="matrix(57.741,0,0,64,0,0)" gradientUnits="userSpaceOnUse"><stop offset="0%" stop-opacity="1" style="stop-color:rgb(250,88,182)"/><stop offset="100%" stop-opacity="1" style="stop-color:rgb(122,11,192)"/></linearGradient><path d=" M 21.619 12.56 L 2.181 46.228 L 2.181 46.228 Q -0.724 51.258 0.24 55.712 L 0.24 55.712 L 0.24 55.712 Q 1.204 60.166 5.147 62.443 L 5.147 62.443 L 5.147 62.443 Q 7.322 63.699 9.736 63.914 L 9.736 63.914 L 9.736 63.914 Q 12.149 64.129 13.787 63.806 L 13.787 63.806 L 13.787 63.806 Q 11.067 62.236 10.807 59.547 L 10.807 59.547 L 10.807 59.547 Q 10.546 56.859 12.273 53.867 L 12.273 53.867 L 28.871 32 L 45.468 53.867 L 45.468 53.867 Q 47.195 56.859 46.934 59.547 L 46.934 59.547 L 46.934 59.547 Q 46.674 62.236 43.954 63.806 L 43.954 63.806 L 43.954 63.806 Q 45.592 64.129 48.005 63.914 L 48.005 63.914 L 48.005 63.914 Q 50.419 63.699 52.595 62.443 L 52.595 62.443 L 52.595 62.443 Q 56.538 60.166 57.501 55.712 L 57.501 55.712 L 57.501 55.712 Q 58.465 51.258 55.56 46.228 L 55.56 46.228 L 36.122 12.56 L 39.748 6.28 L 28.871 0 L 17.993 6.28 L 21.619 12.56 Z " fill="url(#_lgradient_2)"/></svg>